<svg xmlns="http://www.w3.org/2000/svg" viewBox="0 0 800 600" preserveAspectRatio="xMidYMid slice">
  <rect width="800" height="600" fill="#d4a574"/>
  <rect x="0" y="0" width="800" height="200" fill="#87ceeb"/>
  <!-- Buildings -->
  <rect x="100" y="200" width="80" height="120" fill="#c0392b" rx="5"/>
  <rect x="110" y="220" width="20" height="30" fill="#f1c40f" rx="2"/>
  <rect x="150" y="220" width="20" height="30" fill="#f1c40f" rx="2"/>
  <rect x="200" y="180" width="100" height="140" fill="#e67e22" rx="5"/>
  <rect x="220" y="200" width="25" height="35" fill="#f1c40f" rx="2"/>
  <rect x="270" y="200" width="25" height="35" fill="#f1c40f" rx="2"/>
  <rect x="350" y="210" width="70" height="110" fill="#c0392b" rx="5"/>
  <rect x="500" y="190" width="90" height="130" fill="#e67e22" rx="5"/>
  <rect x="650" y="205" width="85" height="115" fill="#c0392b" rx="5"/>
  <!-- Dome -->
  <ellipse cx="750" cy="205" rx="40" ry="20" fill="#c0392b"/>
  <path d="M710,205 Q750,160 790,205" fill="#c0392b"/>
  <!-- Minaret -->
  <rect x="420" y="120" width="20" height="90" fill="#bdc3c7"/>
  <path d="M420,120 Q430,90 440,120" fill="#c0392b"/>
  <text x="400" y="400" text-anchor="middle" font-family="'Microsoft YaHei','PingFang TC','Noto Sans TC',sans-serif" font-size="24" fill="#fff" opacity="0.9">喀什古城 Kashgar Old City</text>
</svg>
