<svg xmlns="http://www.w3.org/2000/svg" viewBox="0 0 800 500" preserveAspectRatio="xMidYMid slice">
  <defs>
    <linearGradient id="bg" x1="0%" y1="0%" x2="100%" y2="100%">
      <stop offset="0%" style="stop-color:#e67e22;stop-opacity:0.9"/>
      <stop offset="100%" style="stop-color:#c0392b;stop-opacity:0.9"/>
    </linearGradient>
  </defs>
  <rect width="800" height="500" fill="url(#bg)"/>
  <!-- Desert dunes -->
  <path d="M0,350 Q200,250 400,320 Q600,220 800,300 L800,500 L0,500 Z" fill="#d4ac0e" opacity="0.6"/>
  <!-- Buildings (Kashgar style) -->
  <rect x="100" y="250" width="60" height="80" fill="#c0392b" rx="3"/>
  <rect x="110" y="265" width="15" height="20" fill="#f1c40f" rx="1"/>
  <rect x="140" y="265" width="15" height="20" fill="#f1c40f" rx="1"/>
  <rect x="300" y="230" width="80" height="100" fill="#e67e22" rx="3"/>
  <path d="M300,230 Q340,200 380,230" fill="#c0392b"/>
  <rect x="550" y="240" width="70" height="90" fill="#c0392b" rx="3"/>
  <path d="M550,240 Q585,215 620,240" fill="#e67e22"/>
  <text x="400" y="180" text-anchor="middle" font-family="'Microsoft JhengHei','PingFang TC','Noto Sans TC',sans-serif" font-size="34" font-weight="bold" fill="#fff" stroke="#000" stroke-width="1" opacity="0.95">南疆絲路秘境9日</text>
  <text x="400" y="225" text-anchor="middle" font-family="'Microsoft JhengHei','PingFang TC','Noto Sans TC',sans-serif" font-size="17" fill="#fff" opacity="0.85">喀什古城 · 帕米爾高原 · 沙漠公路</text>
</svg>
